<svg width="13" height="10" viewBox="0 0 13 10" fill="none" xmlns="http://www.w3.org/2000/svg">
<path d="M12.7788 1.34847L4.78113 9.76784C4.71148 9.84143 4.62871 9.89981 4.53757 9.93965C4.44643 9.97949 4.34872 10 4.25004 10C4.15136 10 4.05365 9.97949 3.96251 9.93965C3.87138 9.89981 3.78861 9.84143 3.71895 9.76784L0.219986 6.08437C0.150242 6.01095 0.0949176 5.92378 0.0571724 5.82785C0.0194272 5.73192 1.03927e-09 5.6291 0 5.52527C-1.03927e-09 5.42143 0.0194272 5.31862 0.0571724 5.22269C0.0949176 5.12676 0.150242 5.03959 0.219986 4.96617C0.28973 4.89275 0.372528 4.83451 0.463653 4.79477C0.554778 4.75503 0.652445 4.73458 0.751078 4.73458C0.849711 4.73458 0.947379 4.75503 1.0385 4.79477C1.12963 4.83451 1.21243 4.89275 1.28217 4.96617L4.25067 8.0912L11.7178 0.231586C11.8587 0.083304 12.0497 0 12.2489 0C12.4481 0 12.6392 0.083304 12.78 0.231586C12.9209 0.379869 13 0.580983 13 0.790686C13 1.00039 12.9209 1.2015 12.78 1.34978L12.7788 1.34847Z" fill="white"/>
</svg>
