<svg width="122" height="48" viewBox="0 0 122 48" fill="none" xmlns="http://www.w3.org/2000/svg">
<path d="M22.4714 20.2003V17.9241H4.49973V32.2511L13.4811 40.0159L22.4714 32.2511V29.9933H26.9621V34.3529L13.4811 46L0 34.3529V8.81936H4.49973V13.3717H11.2312V8.81936H15.7309V13.3717H22.4714V8.81936H26.9621V20.2003H22.4714Z" fill="#FF7800"/>
<path d="M15.7309 4.27618L17.9808 6.54318H11.2403V2H17.9808L15.7309 4.27618Z" fill="#FF7800"/>
<path d="M47.8194 20.0646V18.7933C47.8194 16.0264 46.7291 15.8208 42.8115 15.8208C38.2841 15.8208 37.471 16.606 37.471 21.2611V26.4958C37.471 31.2631 38.0808 32.1792 42.8115 32.1792C46.4335 32.1792 48.0596 32.0483 48.0596 28.6458V27.3371H52.5686V28.9075C52.5686 36.0678 48.6325 36.0678 42.8115 36.0678C34.5144 36.0678 32.9621 33.6 32.9621 26.6828V21.2424C32.9621 13.6334 35.8818 11.9322 42.8115 11.9322C48.6695 11.9322 52.3283 11.9695 52.3283 18.7746V20.0459H47.8194V20.0646Z" fill="#FF7800"/>
<path d="M59.683 31.413L58.1861 35.8998H53.5109L61.3276 12.1381H67.9616L75.9077 35.8998H71.3434L69.7911 31.413H59.683ZM64.7463 15.6154H64.6723L60.6808 27.9543H68.8117L64.7463 15.6154Z" fill="white"/>
<path d="M97.8242 35.8999H93.3153L93.6479 17.6532H93.5555L83.392 35.8999H77.8667V12.1194H82.3756L82.043 30.4034H82.1354L92.299 12.1194H97.8242V35.8999Z" fill="white"/>
<path d="M112.626 35.8999H100.54V12.1194H117.745V16.0267H105.049V21.6353H112.903C116.969 21.6353 119.703 22.8692 119.703 28.3843C119.703 34.7595 117.56 35.8999 112.626 35.8999ZM105.031 31.9925H111.573C114.252 31.9925 115.195 31.6186 115.195 28.7022C115.195 26.1035 114.381 25.5426 111.739 25.5426H105.031V31.9925Z" fill="white"/>
</svg>
