<svg width="16" height="16" viewBox="0 0 16 16" fill="none" xmlns="http://www.w3.org/2000/svg">
<path d="M12.2201 10.9511C12.3609 11.092 12.552 11.1711 12.7513 11.1711C12.9506 11.1711 13.1417 11.092 13.2826 10.9511C13.4234 10.8102 13.5026 10.6191 13.5026 10.4198C13.5026 10.2206 13.4234 10.0295 13.2826 9.88856L8.28255 4.88856C8.21287 4.81864 8.13008 4.76316 8.03892 4.72531C7.94775 4.68745 7.85001 4.66797 7.7513 4.66797C7.65259 4.66797 7.55485 4.68745 7.46369 4.72531C7.37252 4.76316 7.28973 4.81864 7.22005 4.88856L2.22005 9.88856C2.07915 10.0295 2 10.2206 2 10.4198C2 10.6191 2.07915 10.8102 2.22005 10.9511C2.36095 11.092 2.55204 11.1711 2.7513 11.1711C2.95056 11.1711 3.14165 11.092 3.28255 10.9511L7.75068 6.48294L12.2201 10.9511Z" fill="#DDE5EC"/>
</svg>
