<svg width="28" height="28" viewBox="0 0 28 28" fill="none" xmlns="http://www.w3.org/2000/svg">
<path d="M23.625 5.25V10.5C23.625 10.7321 23.5328 10.9546 23.3687 11.1187C23.2046 11.2828 22.9821 11.375 22.75 11.375C22.5179 11.375 22.2954 11.2828 22.1313 11.1187C21.9672 10.9546 21.875 10.7321 21.875 10.5V7.36203L17.2441 11.9941C17.0799 12.1582 16.8572 12.2505 16.625 12.2505C16.3928 12.2505 16.1701 12.1582 16.0059 11.9941C15.8418 11.8299 15.7495 11.6072 15.7495 11.375C15.7495 11.1428 15.8418 10.9201 16.0059 10.7559L20.638 6.125H17.5C17.2679 6.125 17.0454 6.03281 16.8813 5.86872C16.7172 5.70462 16.625 5.48206 16.625 5.25C16.625 5.01794 16.7172 4.79538 16.8813 4.63128C17.0454 4.46719 17.2679 4.375 17.5 4.375H22.75C22.9821 4.375 23.2046 4.46719 23.3687 4.63128C23.5328 4.79538 23.625 5.01794 23.625 5.25ZM10.7559 16.0059L6.125 20.638V17.5C6.125 17.2679 6.03281 17.0454 5.86872 16.8813C5.70462 16.7172 5.48206 16.625 5.25 16.625C5.01794 16.625 4.79538 16.7172 4.63128 16.8813C4.46719 17.0454 4.375 17.2679 4.375 17.5V22.75C4.375 22.9821 4.46719 23.2046 4.63128 23.3687C4.79538 23.5328 5.01794 23.625 5.25 23.625H10.5C10.7321 23.625 10.9546 23.5328 11.1187 23.3687C11.2828 23.2046 11.375 22.9821 11.375 22.75C11.375 22.5179 11.2828 22.2954 11.1187 22.1313C10.9546 21.9672 10.7321 21.875 10.5 21.875H7.36203L11.9941 17.2441C12.1582 17.0799 12.2505 16.8572 12.2505 16.625C12.2505 16.3928 12.1582 16.1701 11.9941 16.0059C11.8299 15.8418 11.6072 15.7495 11.375 15.7495C11.1428 15.7495 10.9201 15.8418 10.7559 16.0059ZM22.75 16.625C22.5179 16.625 22.2954 16.7172 22.1313 16.8813C21.9672 17.0454 21.875 17.2679 21.875 17.5V20.638L17.2441 16.0059C17.0799 15.8418 16.8572 15.7495 16.625 15.7495C16.3928 15.7495 16.1701 15.8418 16.0059 16.0059C15.8418 16.1701 15.7495 16.3928 15.7495 16.625C15.7495 16.8572 15.8418 17.0799 16.0059 17.2441L20.638 21.875H17.5C17.2679 21.875 17.0454 21.9672 16.8813 22.1313C16.7172 22.2954 16.625 22.5179 16.625 22.75C16.625 22.9821 16.7172 23.2046 16.8813 23.3687C17.0454 23.5328 17.2679 23.625 17.5 23.625H22.75C22.9821 23.625 23.2046 23.5328 23.3687 23.3687C23.5328 23.2046 23.625 22.9821 23.625 22.75V17.5C23.625 17.2679 23.5328 17.0454 23.3687 16.8813C23.2046 16.7172 22.9821 16.625 22.75 16.625ZM7.36203 6.125H10.5C10.7321 6.125 10.9546 6.03281 11.1187 5.86872C11.2828 5.70462 11.375 5.48206 11.375 5.25C11.375 5.01794 11.2828 4.79538 11.1187 4.63128C10.9546 4.46719 10.7321 4.375 10.5 4.375H5.25C5.01794 4.375 4.79538 4.46719 4.63128 4.63128C4.46719 4.79538 4.375 5.01794 4.375 5.25V10.5C4.375 10.7321 4.46719 10.9546 4.63128 11.1187C4.79538 11.2828 5.01794 11.375 5.25 11.375C5.48206 11.375 5.70462 11.2828 5.86872 11.1187C6.03281 10.9546 6.125 10.7321 6.125 10.5V7.36203L10.7559 11.9941C10.9201 12.1582 11.1428 12.2505 11.375 12.2505C11.6072 12.2505 11.8299 12.1582 11.9941 11.9941C12.1582 11.8299 12.2505 11.6072 12.2505 11.375C12.2505 11.1428 12.1582 10.9201 11.9941 10.7559L7.36203 6.125Z" fill="white"/>
</svg>
