<svg width="20" height="20" viewBox="0 0 20 20" fill="none" xmlns="http://www.w3.org/2000/svg">
<path d="M16.6673 9.99867C16.6673 11.7668 15.9649 13.4625 14.7146 14.7127C13.4644 15.9629 11.7687 16.6653 10.0006 16.6653C8.23252 16.6653 6.53683 15.9629 5.2866 14.7127C4.03636 13.4625 3.33398 11.7668 3.33398 9.99867M16.6673 9.99867C16.6673 8.23057 15.9649 6.53488 14.7146 5.28464C13.4644 4.03441 11.7687 3.33203 10.0006 3.33203C8.23252 3.33203 6.53683 4.03441 5.2866 5.28464C4.03636 6.53488 3.33398 8.23057 3.33398 9.99867M16.6673 9.99867H3.33398" stroke="white" stroke-width="1.5" stroke-linecap="round" stroke-linejoin="round"/>
<path d="M12.5657 9.99867C12.4397 12.4366 11.5418 14.7713 10.0016 16.6653C8.46141 14.7713 7.56345 12.4366 7.4375 9.99867C7.56345 7.56074 8.46141 5.22602 10.0016 3.33203C11.5418 5.22602 12.4397 7.56074 12.5657 9.99867Z" stroke="white" stroke-width="1.5" stroke-linecap="round" stroke-linejoin="round"/>
</svg>
