<svg width="65" height="66" viewBox="0 0 65 66" fill="none" xmlns="http://www.w3.org/2000/svg">
<path d="M36.25 49.25C36.25 49.9917 36.0301 50.7167 35.618 51.3334C35.206 51.9501 34.6203 52.4307 33.9351 52.7145C33.2499 52.9984 32.4959 53.0726 31.7684 52.9279C31.041 52.7832 30.3728 52.4261 29.8484 51.9016C29.3239 51.3772 28.9668 50.709 28.8221 49.9816C28.6774 49.2542 28.7516 48.5002 29.0355 47.8149C29.3193 47.1297 29.7999 46.544 30.4166 46.132C31.0333 45.7199 31.7583 45.5 32.5 45.5C33.4946 45.5 34.4484 45.8951 35.1517 46.5984C35.8549 47.3016 36.25 48.2554 36.25 49.25ZM32.5 15.5C25.6063 15.5 20 20.5469 20 26.75V28C20 28.663 20.2634 29.2989 20.7322 29.7678C21.2011 30.2366 21.837 30.5 22.5 30.5C23.1631 30.5 23.7989 30.2366 24.2678 29.7678C24.7366 29.2989 25 28.663 25 28V26.75C25 23.3125 28.3656 20.5 32.5 20.5C36.6344 20.5 40 23.3125 40 26.75C40 30.1875 36.6344 33 32.5 33C31.837 33 31.2011 33.2634 30.7322 33.7322C30.2634 34.2011 30 34.837 30 35.5V38C30 38.663 30.2634 39.2989 30.7322 39.7678C31.2011 40.2366 31.837 40.5 32.5 40.5C33.1631 40.5 33.7989 40.2366 34.2678 39.7678C34.7366 39.2989 35 38.663 35 38V37.775C40.7 36.7281 45 32.1812 45 26.75C45 20.5469 39.3938 15.5 32.5 15.5ZM65 33C65 39.4279 63.0939 45.7114 59.5228 51.056C55.9516 56.4006 50.8758 60.5662 44.9372 63.0261C38.9986 65.4859 32.464 66.1295 26.1596 64.8755C19.8552 63.6215 14.0643 60.5262 9.51904 55.981C4.97384 51.4358 1.87851 45.6448 0.624493 39.3404C-0.629527 33.0361 0.0140817 26.5014 2.47393 20.5628C4.93378 14.6242 9.09938 9.54838 14.444 5.97724C19.7886 2.40609 26.0721 0.5 32.5 0.5C41.1168 0.509099 49.378 3.93612 55.4709 10.0291C61.5639 16.122 64.9909 24.3833 65 33ZM60 33C60 27.561 58.3872 22.2442 55.3654 17.7218C52.3437 13.1995 48.0488 9.67472 43.0238 7.59331C37.9988 5.5119 32.4695 4.96731 27.135 6.0284C21.8006 7.0895 16.9005 9.70862 13.0546 13.5546C9.20863 17.4005 6.58951 22.3005 5.52842 27.635C4.46733 32.9695 5.01192 38.4988 7.09333 43.5238C9.17474 48.5488 12.6995 52.8437 17.2218 55.8654C21.7442 58.8872 27.061 60.5 32.5 60.5C39.7909 60.4917 46.7809 57.5918 51.9363 52.4363C57.0918 47.2808 59.9917 40.2909 60 33Z" fill="#FF7800"/>
</svg>
