<svg width="16" height="16" viewBox="0 0 16 16" fill="none" xmlns="http://www.w3.org/2000/svg">
<path d="M4.46691 12.4701C4.32601 12.6109 4.24686 12.802 4.24686 13.0013C4.24686 13.2006 4.32601 13.3917 4.46691 13.5326C4.60781 13.6734 4.7989 13.7526 4.99816 13.7526C5.19742 13.7526 5.38851 13.6734 5.52941 13.5326L10.5294 8.53255C10.5993 8.46287 10.6548 8.38008 10.6927 8.28892C10.7305 8.19775 10.75 8.10001 10.75 8.0013C10.75 7.90259 10.7305 7.80485 10.6927 7.71369C10.6548 7.62252 10.5993 7.53973 10.5294 7.47005L5.52941 2.47005C5.38851 2.32915 5.19742 2.25 4.99816 2.25C4.7989 2.25 4.60781 2.32915 4.46691 2.47005C4.32601 2.61095 4.24686 2.80204 4.24686 3.0013C4.24686 3.20056 4.32601 3.39165 4.46691 3.53255L8.93503 8.00068L4.46691 12.4701Z" fill="#677075"/>
</svg>
