<svg width="65" height="66" viewBox="0 0 65 66" fill="none" xmlns="http://www.w3.org/2000/svg">
<path d="M46.7688 23.7312C47.0012 23.9634 47.1856 24.2392 47.3114 24.5426C47.4372 24.8461 47.502 25.1715 47.502 25.5C47.502 25.8285 47.4372 26.1539 47.3114 26.4574C47.1856 26.7608 47.0012 27.0366 46.7688 27.2688L29.2688 44.7688C29.0366 45.0012 28.7608 45.1856 28.4573 45.3114C28.1539 45.4372 27.8285 45.502 27.5 45.502C27.1715 45.502 26.8461 45.4372 26.5426 45.3114C26.2392 45.1856 25.9634 45.0012 25.7312 44.7688L18.2312 37.2688C17.7621 36.7996 17.4986 36.1634 17.4986 35.5C17.4986 34.8366 17.7621 34.2004 18.2312 33.7312C18.7003 33.2621 19.3366 32.9986 20 32.9986C20.6634 32.9986 21.2996 33.2621 21.7688 33.7312L27.5 39.4656L43.2312 23.7312C43.4634 23.4988 43.7392 23.3144 44.0426 23.1886C44.3461 23.0628 44.6715 22.998 45 22.998C45.3285 22.998 45.6539 23.0628 45.9573 23.1886C46.2608 23.3144 46.5366 23.4988 46.7688 23.7312ZM65 33C65 39.4279 63.0939 45.7114 59.5228 51.056C55.9516 56.4006 50.8758 60.5662 44.9372 63.0261C38.9986 65.4859 32.4639 66.1295 26.1596 64.8755C19.8552 63.6215 14.0642 60.5262 9.51903 55.981C4.97382 51.4358 1.8785 45.6448 0.624478 39.3404C-0.629542 33.0361 0.0140665 26.5014 2.47391 20.5628C4.93376 14.6242 9.09937 9.54838 14.444 5.97724C19.7886 2.40609 26.0721 0.5 32.5 0.5C41.1167 0.509099 49.378 3.93612 55.4709 10.0291C61.5639 16.122 64.9909 24.3833 65 33ZM60 33C60 27.561 58.3872 22.2442 55.3654 17.7218C52.3437 13.1995 48.0488 9.67472 43.0238 7.59331C37.9988 5.5119 32.4695 4.96731 27.135 6.0284C21.8005 7.0895 16.9005 9.70862 13.0546 13.5546C9.20862 17.4005 6.5895 22.3005 5.5284 27.635C4.46731 32.9695 5.0119 38.4988 7.09331 43.5238C9.17472 48.5488 12.6995 52.8437 17.2218 55.8654C21.7442 58.8872 27.061 60.5 32.5 60.5C39.7909 60.4917 46.7808 57.5918 51.9363 52.4363C57.0918 47.2808 59.9917 40.2909 60 33Z" fill="#19BA93"/>
</svg>
